<svg width="1170" height="634" viewBox="0 0 1170 634" fill="none" xmlns="http://www.w3.org/2000/svg">
<path d="M0 0H1170C1170 0 1094.45 45.8241 1055 96.9535C993.381 176.814 1066.73 221.502 1032.14 335.104C997.552 448.707 971.1 417.811 880.552 448.707C790.004 479.603 801.357 565.778 720.822 602.237C669.044 625.678 634.903 633.16 577.37 633.609C517.706 634.074 527.517 638.362 428.322 602.237C329.126 566.113 354.143 512.544 292.5 470.097C231.779 428.285 165.62 444.981 120.052 388.816C57.4051 311.6 139.891 202.964 120.052 140.696C100.213 78.4287 54.8296 54.9453 0 0Z" fill="#96E171"/>
</svg>
